<svg width="18" height="18" viewBox="0 0 18 18" fill="none" xmlns="http://www.w3.org/2000/svg">
<path d="M3.93784 8.57636L3.93764 8.57617C3.83997 8.47849 3.70749 8.42362 3.56936 8.42362C3.43122 8.42362 3.29875 8.47849 3.20107 8.57617C3.1034 8.67384 3.04852 8.80632 3.04852 8.94445C3.04852 8.9528 3.04872 8.96114 3.04912 8.96947C3.05534 9.0988 3.10951 9.22118 3.20107 9.31274L3.20127 9.31293L6.8469 12.9586C7.0503 13.162 7.38008 13.162 7.58347 12.9586L14.8751 5.6669C14.9728 5.56923 15.0277 5.43675 15.0277 5.29862C15.0277 5.16049 14.9728 5.02801 14.8751 4.93033C14.7775 4.83266 14.645 4.77779 14.5069 4.77779C14.3687 4.77779 14.2362 4.83266 14.1386 4.93033L7.21519 11.8537L3.93784 8.57636Z" fill="#1C1C1C"/>
</svg>
