<svg width="46" height="47" viewBox="0 0 46 47" fill="none" xmlns="http://www.w3.org/2000/svg">
<circle cx="22.8504" cy="23.406" r="16.6667" transform="rotate(30 22.8504 23.406)" fill="#FF4747"/>
<path d="M14.9373 21.2818L18.4726 15.1584L19.5819 15.7989L18.0852 18.3912L20.9227 20.0294L22.4193 17.4371L23.5316 18.0792L19.9962 24.2027L18.884 23.5605L20.3858 20.9592L17.5484 19.321L16.0465 21.9223L14.9373 21.2818ZM23.1063 26.1179C22.6578 25.8589 22.3261 25.5358 22.1111 25.1486C21.8962 24.7614 21.8004 24.338 21.8239 23.8785C21.8493 23.4201 21.999 22.9537 22.2729 22.4793C22.5468 22.0049 22.8765 21.6411 23.2618 21.3879C23.6492 21.1358 24.0643 21.006 24.5072 20.9986C24.95 20.9911 25.3957 21.1169 25.8442 21.3758C26.2926 21.6347 26.6244 21.9578 26.8393 22.345C27.0543 22.7323 27.1485 23.1561 27.1219 23.6164C27.0973 24.078 26.948 24.5459 26.6741 25.0203C26.4002 25.4947 26.0701 25.857 25.6839 26.1071C25.2997 26.3583 24.8861 26.4876 24.4433 26.4951C24.0005 26.5025 23.5548 26.3768 23.1063 26.1179ZM23.6129 25.2542C23.8561 25.3946 24.098 25.4452 24.3385 25.4061C24.5802 25.3649 24.8065 25.2537 25.0175 25.0725C25.2304 24.8924 25.4174 24.6629 25.5785 24.3838C25.7408 24.1028 25.8467 23.825 25.8961 23.5506C25.9487 23.2753 25.9325 23.0228 25.8473 22.7928C25.7621 22.5629 25.5979 22.3778 25.3547 22.2374C25.1055 22.0935 24.8591 22.0416 24.6154 22.0816C24.3737 22.1228 24.1458 22.2344 23.9317 22.4165C23.7208 22.5977 23.5342 22.8288 23.3719 23.1098C23.2108 23.3889 23.1045 23.6651 23.0531 23.9383C23.0036 24.2128 23.0215 24.4649 23.1067 24.6948C23.195 24.9239 23.3638 25.1104 23.6129 25.2542ZM31.2222 24.5605L30.7388 25.3977L28.0987 23.8734L28.5821 23.0363L31.2222 24.5605ZM29.8691 22.3123L30.9515 22.9372L28.4622 27.2487C28.3782 27.3942 28.3357 27.5185 28.3347 27.6215C28.3368 27.7238 28.3667 27.8101 28.4243 27.8806C28.4819 27.9511 28.5556 28.0122 28.6453 28.064C28.7131 28.1031 28.7778 28.1338 28.8393 28.1561C28.9029 28.1795 28.9519 28.1958 28.9864 28.2051L28.6803 29.1566C28.611 29.1431 28.5156 29.1173 28.3941 29.0791C28.2747 29.042 28.1371 28.9812 27.9813 28.8965C27.7056 28.748 27.485 28.5662 27.3195 28.351C27.1552 28.1339 27.0645 27.8928 27.0474 27.6278C27.0323 27.3639 27.1086 27.0891 27.2763 26.8032L29.8691 22.3123Z" fill="white"/>
</svg>
