<svg width="147" height="54" viewBox="0 0 147 54" fill="none" xmlns="http://www.w3.org/2000/svg">
<rect width="146.528" height="52.7778" transform="translate(0 0.333313)" fill="url(#paint0_linear_190_1503)"/>
<path d="M57.801 20.1507C57.801 19.9447 57.6386 19.7778 57.4382 19.7778C57.2377 19.7778 57.0753 19.9447 57.0753 20.1507V22.2979C57.0753 22.4068 56.9471 22.4614 56.8722 22.3843L55.8042 21.2869C55.6625 21.1412 55.4327 21.1412 55.291 21.2869C55.1493 21.4325 55.1493 21.6686 55.291 21.8142L56.8662 23.4329C57.0001 23.5705 57.0753 23.7571 57.0753 23.9516V25.8625C57.0753 25.9566 56.9761 26.0154 56.8968 25.9684L55.2812 25.0099C55.1173 24.9126 54.9976 24.7524 54.9486 24.5645L54.3721 22.3533C54.3202 22.1544 54.1212 22.0363 53.9276 22.0896C53.7341 22.1429 53.6192 22.3474 53.671 22.5463L54.062 24.0455C54.0894 24.1507 53.9793 24.2375 53.8875 24.183L52.0831 23.1125C51.9095 23.0095 51.6876 23.0706 51.5874 23.2489C51.4872 23.4273 51.5466 23.6554 51.7202 23.7583L53.5267 24.8301C53.6185 24.8845 53.6004 25.0259 53.498 25.0541L52.0359 25.4566C51.8423 25.5099 51.7274 25.7144 51.7793 25.9133C51.8312 26.1123 52.0302 26.2303 52.2237 26.177L54.3787 25.5837C54.5616 25.5333 54.7564 25.5597 54.9204 25.657L56.5351 26.6149C56.6144 26.662 56.6144 26.7796 56.5351 26.8267L54.9172 27.7866C54.7532 27.8839 54.5584 27.9102 54.3755 27.8599L52.2237 27.2674C52.0302 27.2141 51.8312 27.3321 51.7793 27.5311C51.7274 27.73 51.8423 27.9345 52.0359 27.9878L53.4948 28.3895C53.5972 28.4177 53.6153 28.559 53.5235 28.6134L51.719 29.684C51.5455 29.787 51.486 30.015 51.5862 30.1934C51.6864 30.3717 51.9084 30.4329 52.0819 30.3299L53.8884 29.2581C53.9802 29.2037 54.0902 29.2904 54.0628 29.3956L53.671 30.8981C53.6192 31.097 53.7341 31.3015 53.9276 31.3548C54.1212 31.4081 54.3202 31.29 54.3721 31.0911L54.9495 28.8767C54.9985 28.6888 55.1181 28.5285 55.2821 28.4313L56.8968 27.4733C56.9761 27.4262 57.0753 27.485 57.0753 27.5791V29.4989C57.0753 29.6934 57.0001 29.88 56.8662 30.0176L55.291 31.6363C55.1493 31.7819 55.1493 32.018 55.291 32.1636C55.4327 32.3093 55.6625 32.3093 55.8042 32.1636L56.8722 31.0662C56.9471 30.9892 57.0753 31.0437 57.0753 31.1526V33.2937C57.0753 33.4997 57.2377 33.6666 57.4382 33.6666C57.6386 33.6666 57.801 33.4997 57.801 33.2937V31.1502C57.801 31.0413 57.9292 30.9868 58.0041 31.0638L59.0745 32.1636C59.2162 32.3093 59.4459 32.3093 59.5877 32.1636C59.7294 32.018 59.7294 31.7819 59.5877 31.6363L58.0101 30.0152C57.8762 29.8776 57.801 29.6911 57.801 29.4965V27.5778C57.801 27.4837 57.9002 27.4248 57.9795 27.4719L59.5914 28.4282C59.7554 28.5255 59.875 28.6857 59.924 28.8736L60.5014 31.0881C60.5533 31.287 60.7523 31.405 60.9459 31.3517C61.1394 31.2984 61.2543 31.094 61.2024 30.895L60.8107 29.3926C60.7833 29.2874 60.8933 29.2006 60.9851 29.2551L62.7967 30.3299C62.9703 30.4329 63.1922 30.3717 63.2924 30.1934C63.3926 30.015 63.3332 29.787 63.1596 29.684L61.35 28.6104C61.2582 28.5559 61.2763 28.4146 61.3787 28.3864L62.8376 27.9847C63.0312 27.9314 63.1461 27.7269 63.0942 27.528C63.0423 27.3291 62.8433 27.211 62.6498 27.2643L60.498 27.8568C60.3151 27.9072 60.1202 27.8808 59.9563 27.7835L58.3435 26.8267C58.2642 26.7796 58.2642 26.662 58.3435 26.6149L59.9531 25.66C60.1171 25.5627 60.3119 25.5364 60.4948 25.5867L62.6498 26.1801C62.8433 26.2334 63.0423 26.1153 63.0942 25.9164C63.1461 25.7175 63.0312 25.513 62.8376 25.4597L61.3755 25.0571C61.2731 25.0289 61.255 24.8876 61.3468 24.8331L63.1584 23.7583C63.332 23.6554 63.3915 23.4273 63.2913 23.2489C63.1911 23.0706 62.9691 23.0095 62.7956 23.1125L60.9859 24.1861C60.8942 24.2405 60.7841 24.1538 60.8115 24.0485L61.2024 22.5494C61.2543 22.3504 61.1394 22.146 60.9459 22.0927C60.7523 22.0394 60.5533 22.1574 60.5014 22.3563L59.9249 24.5675C59.8758 24.7554 59.7562 24.9157 59.5922 25.0129L57.9795 25.9698C57.9002 26.0168 57.801 25.958 57.801 25.8639V23.954C57.801 23.7595 57.8762 23.5729 58.0101 23.4353L59.5877 21.8142C59.7294 21.6686 59.7294 21.4325 59.5877 21.2869C59.4459 21.1412 59.2162 21.1412 59.0745 21.2869L58.0041 22.3867C57.9292 22.4637 57.801 22.4092 57.801 22.3003V20.1507Z" fill="#95A4FC"/>
<path d="M78.7117 29.9273V26.188C78.7117 25.3029 78.0148 24.5854 77.1552 24.5854C76.2955 24.5854 75.5986 25.3029 75.5986 26.188V29.9273H74.561V26.188C74.561 24.7129 75.7224 23.5171 77.1552 23.5171C78.5879 23.5171 79.7494 24.7129 79.7494 26.188V29.9273H78.7117Z" fill="#1C1C1C"/>
<path fill-rule="evenodd" clip-rule="evenodd" d="M84.4189 28.8589C85.5651 28.8589 86.4942 27.9023 86.4942 26.7222C86.4942 25.5421 85.5651 24.5854 84.4189 24.5854C83.2727 24.5854 82.3435 25.5421 82.3435 26.7222C82.3435 27.9023 83.2727 28.8589 84.4189 28.8589ZM84.4189 29.9273C86.1382 29.9273 87.5319 28.4923 87.5319 26.7222C87.5319 24.9521 86.1382 23.5171 84.4189 23.5171C82.6996 23.5171 81.3058 24.9521 81.3058 26.7222C81.3058 28.4923 82.6996 29.9273 84.4189 29.9273Z" fill="#95A4FC"/>
<path d="M88.5696 23.5171L89.5475 29.0467C89.7504 30.1938 91.238 30.2309 91.4884 29.0952L92.0682 25.9433C92.0895 25.8275 92.2402 25.8298 92.2585 25.9462L92.7463 29.0484C92.9628 30.1937 94.4527 30.2084 94.6881 29.0676L95.8333 23.5171H94.8262L93.8184 28.8378C93.7968 28.9522 93.6482 28.9507 93.6285 28.8359L92.7132 23.5171H91.6994L90.6274 28.8534C90.6045 28.9674 90.4562 28.9641 90.4375 28.8492L89.572 23.5171H88.5696Z" fill="#1C1C1C"/>
<path d="M70.6157 29.9273C71.3445 29.9273 71.9248 29.771 72.3566 29.4453C72.7885 29.1195 73.0044 28.6765 73.0044 28.0902C73.0044 27.5821 72.829 27.2043 72.4916 26.9307C72.1407 26.6571 71.6819 26.4225 71.1015 26.2141C70.7102 26.0577 70.3728 25.9144 70.1163 25.7841C69.8599 25.6538 69.725 25.4584 69.725 25.1978C69.725 24.9633 69.8194 24.7809 70.0219 24.6636C70.2243 24.5464 70.4942 24.4942 70.8316 24.4942C71.088 24.4942 71.3445 24.5333 71.5874 24.6115C71.8168 24.6897 72.0597 24.7939 72.3162 24.9372L72.7345 24.0513C72.4511 23.8688 72.1407 23.7386 71.8168 23.6474C71.4929 23.5562 71.169 23.5171 70.8316 23.5171C70.1568 23.5171 69.617 23.6604 69.1986 23.9601C68.7803 24.2597 68.5778 24.6766 68.5913 25.2108C68.6048 25.7059 68.7803 26.0838 69.1312 26.3444C69.4685 26.6049 69.9274 26.8395 70.5077 27.0479C70.8991 27.1912 71.223 27.3346 71.4794 27.4779C71.7358 27.6212 71.8573 27.8427 71.8573 28.1293C71.8573 28.3899 71.7493 28.5853 71.5334 28.7287C71.304 28.872 70.9936 28.9371 70.5752 28.9371C70.2918 28.9371 69.9949 28.885 69.698 28.7938C69.4011 28.7026 69.0907 28.5593 68.7533 28.3378L68.3349 29.2628C68.6723 29.4713 69.0367 29.6277 69.4011 29.7449C69.7655 29.8622 70.1703 29.9273 70.6157 29.9273Z" fill="#1C1C1C"/>
<defs>
<linearGradient id="paint0_linear_190_1503" x1="73.2639" y1="0" x2="73.2639" y2="13.0185" gradientUnits="userSpaceOnUse">
<stop stop-color="white" stop-opacity="0"/>
<stop offset="1" stop-color="white"/>
</linearGradient>
</defs>
</svg>
